<svg xmlns="http://www.w3.org/2000/svg" x="0px" y="0px" viewBox="0 0 64 80">
	<path fill="white" d="M49.948,15.67c-0.119-0.355-0.427-0.614-0.797-0.671l-11.22-1.715L32.905,2.575C32.74,2.225,32.388,2,32,2  s-0.74,0.225-0.905,0.575l-5.026,10.709l-11.22,1.715c-0.37,0.057-0.678,0.315-0.797,0.671s-0.029,0.747,0.232,1.016l8.147,8.35  l-1.926,11.804c-0.062,0.378,0.099,0.758,0.411,0.979c0.313,0.221,0.726,0.243,1.06,0.058L32,32.335l10.023,5.54  C42.174,37.959,42.341,38,42.507,38c0.202,0,0.404-0.062,0.576-0.183c0.312-0.221,0.473-0.601,0.411-0.979l-1.926-11.804l8.147-8.35  C49.978,16.417,50.067,16.025,49.948,15.67z M36.1,32.316l-3.616-1.999c-0.15-0.083-0.316-0.125-0.483-0.125  s-0.333,0.042-0.483,0.125L27.9,32.316v-8.594c0-0.501,0.194-0.971,0.548-1.324c0.282-0.282,0.639-0.458,1.026-0.52l1.174,0.896  l-1.18,1.77c-0.199,0.299-0.223,0.681-0.062,1.002l1.7,3.4C31.275,29.286,31.621,29.5,32,29.5s0.725-0.214,0.895-0.553l1.7-3.4  c0.16-0.321,0.137-0.703-0.062-1.002l-1.18-1.77l1.173-0.896c0.891,0.144,1.575,0.912,1.575,1.843V32.316z M32,21.292l-1.577-1.204  C29.9,19.631,29.6,18.981,29.6,18.3c0-0.735,0.331-1.42,0.908-1.88c0.581-0.464,1.31-0.626,2.065-0.45  c0.842,0.187,1.547,0.881,1.753,1.727c0.218,0.892-0.063,1.785-0.752,2.393L32,21.292z M32.546,25.172L32,26.264l-0.546-1.092  L32,24.353L32.546,25.172z M39.784,24c-0.222,0.227-0.322,0.546-0.271,0.859l1.676,10.27L38.1,33.422v-9.699  c0-1.521-0.881-2.84-2.159-3.473c0.462-0.915,0.587-1.973,0.329-3.028c-0.389-1.593-1.67-2.851-3.256-3.203  c-1.332-0.307-2.7-0.002-3.752,0.837C28.205,15.696,27.6,16.952,27.6,18.3c0,0.682,0.161,1.347,0.462,1.946  c-0.376,0.186-0.723,0.434-1.027,0.738c-0.731,0.731-1.134,1.703-1.134,2.738v9.699l-3.089,1.707l1.676-10.27  c0.051-0.313-0.05-0.633-0.271-0.859l-7.141-7.318l9.823-1.501c0.329-0.05,0.612-0.262,0.754-0.563L32,5.354l4.348,9.264  c0.142,0.302,0.425,0.514,0.754,0.563l9.823,1.501L39.784,24z" />
	<path fill="white" d="M34.983,60.143l-1.538,1.025l1.109,1.664l1.538-1.025C37.287,61.011,38,59.679,38,58.242v-3.08c0-2.071-1.182-3.922-3-4.821  V38c0-1.654-1.346-3-3-3s-3,1.346-3,3v5c-1.86,0-3.429,1.276-3.873,3H25c-1.86,0-3.429,1.276-3.873,3H21c-2.206,0-4,1.794-4,4v9h2  v-9c0-1.103,0.897-2,2-2v3h2v-4c0-1.103,0.897-2,2-2v4h2v-5c0-1.103,0.897-2,2-2v5h2v-6v-6c0-0.552,0.448-1,1-1s1,0.448,1,1v18h2  v-3.239c0.625,0.622,1,1.476,1,2.401v3.08C36,59.008,35.62,59.719,34.983,60.143z" />
	<rect fill="white" x="4" y="2" width="2" height="2" />
	<rect fill="white" x="4" y="6" width="2" height="2" />
	<rect fill="white" x="6" y="4" width="2" height="2" />
	<rect fill="white" x="2" y="4" width="2" height="2" />
	<rect fill="white" x="58" y="5" width="2" height="2" />
	<rect fill="white" x="58" y="9" width="2" height="2" />
	<rect fill="white" x="60" y="7" width="2" height="2" />
	<rect fill="white" x="56" y="7" width="2" height="2" />
	<rect fill="white" x="52" y="46" width="2" height="2" />
	<rect fill="white" x="52" y="50" width="2" height="2" />
	<rect fill="white" x="54" y="48" width="2" height="2" />
	<rect fill="white" x="50" y="48" width="2" height="2" />
	<rect fill="white" x="4" y="41" width="2" height="2" />
	<rect fill="white" x="4" y="45" width="2" height="2" />
	<rect fill="white" x="6" y="43" width="2" height="2" />
	<rect fill="white" x="2" y="43" width="2" height="2" />
</svg>
