<svg xmlns="http://www.w3.org/2000/svg" version="1.1" x="0px" y="0px" viewBox="0 0 512 640">
	<path fill="white" d="M352.715,197.717c-0.246,20.646-5.291,40.311-14.016,57.76h-78.658c13.025,9.097,22.492,22.255,25.932,37.859  v18.314c-19.664,11.434-42.652,18.066-67.109,18.066c-24.463,0-47.439-6.633-67.232-18.066v-18.314  c3.559-15.604,13.029-28.762,25.932-37.859h-78.66c-8.609-17.449-13.645-37.113-13.887-57.76  c4.914-8.242,11.799-15.249,19.904-20.654c6.641,15.241,21.885,23.971,39.463,24.335h0.369h0.242  c17.578-0.364,32.938-9.094,39.572-24.335c0.625,0.494,1.232,0.861,1.85,1.354c-10.818,9.342-16.594,23.6-14.012,40.314  l3.813,25.445c0.488,3.809,1.471,7.25,2.945,10.447v0.245l0.121,0.122l0.248,0.486c6.762,14.628,21.756,22.988,38.957,23.361h0.375  h0.246c17.207-0.496,32.326-8.732,39.082-23.361v-0.119l0.131-0.246l0.119-0.121v-0.122l0.119-0.245v-0.128l0,0  c1.355-3.191,2.459-6.635,2.951-10.319l3.809-25.445c2.463-16.715-3.314-30.973-14.127-40.314c0.607-0.492,1.344-0.859,1.957-1.354  c6.518,15.241,21.879,23.971,39.459,24.335h0.363h0.248c17.584-0.364,32.941-9.094,39.451-24.335  C340.914,182.468,347.674,189.475,352.715,197.717L352.715,197.717z M353.82,397.199l39.701-33.311l83.082,99.309  c9.217,10.947,7.746,27.289-3.191,36.506l0,0c-10.941,9.098-27.293,7.615-36.512-3.32L353.82,397.199z M378.889,359.834  l-25.566-30.605c68.334-68.711,74.238-179.326,10.697-255.039C296.916-6.07,177.318-16.648,97.184,50.586  c-80.262,67.235-90.83,186.703-23.6,266.96c63.42,75.719,173.551,89.24,253.068,34.057l25.688,30.6L378.889,359.834z   M218.863,49.483c80.879,0,146.389,65.512,146.389,146.388c0,80.75-65.51,146.383-146.389,146.383S72.477,276.621,72.477,195.871  C72.477,114.995,137.984,49.483,218.863,49.483L218.863,49.483z M218.863,266.297c-16.838-0.369-28.268-9.706-30.363-23.961  l-3.809-25.449c-2.953-19.791,9.838-36.996,34.172-37.49c24.211,0.494,36.996,17.699,34.043,37.49l-3.678,25.449  C247.004,256.591,235.578,265.928,218.863,266.297L218.863,266.297z M292.973,188.87c-16.836-0.371-28.264-9.719-30.355-23.973  l-3.809-25.318c-2.949-19.912,9.832-37.118,34.164-37.609c24.217,0.491,36.998,17.697,34.053,37.609l-3.811,25.318  C321.123,179.151,309.695,188.499,292.973,188.87L292.973,188.87z M144.752,188.87c-16.84-0.371-28.271-9.719-30.367-23.973  l-3.813-25.318c-2.941-19.912,9.844-37.118,34.18-37.609c24.205,0.491,36.986,17.697,34.037,37.609l-3.684,25.318  C172.898,179.151,161.461,188.499,144.752,188.87L144.752,188.87z" />
</svg>
